<?xml version="1.0" encoding="UTF-8"?>
<svg id="Camada_2" data-name="Camada 2" xmlns="http://www.w3.org/2000/svg" xmlns:xlink="http://www.w3.org/1999/xlink" viewBox="0 0 726.65 757.2">
  <defs>
    <style>
      .cls-1 {
        fill: url(#Gradiente_sem_nome_79);
      }

      .cls-2 {
        fill: url(#Gradiente_sem_nome_41);
      }

      .cls-3 {
        fill: url(#Gradiente_sem_nome_118);
      }

      .cls-4 {
        fill: url(#Gradiente_sem_nome_273);
      }

      .cls-5 {
        fill: url(#Gradiente_sem_nome_118-4);
      }

      .cls-6 {
        fill: url(#Gradiente_sem_nome_118-3);
      }

      .cls-7 {
        fill: url(#Gradiente_sem_nome_118-2);
      }

      .cls-8 {
        fill: url(#Gradiente_sem_nome_41-4);
      }

      .cls-9 {
        fill: url(#Gradiente_sem_nome_41-2);
      }

      .cls-10 {
        fill: url(#Gradiente_sem_nome_41-5);
      }

      .cls-11 {
        fill: url(#Gradiente_sem_nome_41-6);
      }

      .cls-12 {
        fill: url(#Gradiente_sem_nome_41-3);
      }

      .cls-13 {
        fill: url(#Gradiente_sem_nome_41-7);
      }

      .cls-14 {
        fill: url(#Gradiente_sem_nome_41-8);
      }
    </style>
    <linearGradient id="Gradiente_sem_nome_41" data-name="Gradiente sem nome 41" x1="311.19" y1="263.3" x2="600.71" y2="263.3" gradientUnits="userSpaceOnUse">
      <stop offset="0" stop-color="#2d9b03"/>
      <stop offset="1" stop-color="#36b515"/>
    </linearGradient>
    <linearGradient id="Gradiente_sem_nome_273" data-name="Gradiente sem nome 273" x1="116.69" y1="132.89" x2="291.87" y2="132.89" gradientUnits="userSpaceOnUse">
      <stop offset="0" stop-color="#36b515"/>
      <stop offset="1" stop-color="#2d9b03"/>
    </linearGradient>
    <linearGradient id="Gradiente_sem_nome_79" data-name="Gradiente sem nome 79" x1="415.63" y1="419.54" x2="611.18" y2="419.54" gradientUnits="userSpaceOnUse">
      <stop offset="0" stop-color="#f5ca1a"/>
      <stop offset="1" stop-color="#f4b80d"/>
    </linearGradient>
    <linearGradient id="Gradiente_sem_nome_118" data-name="Gradiente sem nome 118" x1="117.05" y1="391.09" x2="336.59" y2="391.09" gradientUnits="userSpaceOnUse">
      <stop offset="0" stop-color="#4375e5"/>
      <stop offset=".54" stop-color="#3e60de"/>
      <stop offset="1" stop-color="#3c53da"/>
    </linearGradient>
    <linearGradient id="Gradiente_sem_nome_118-2" data-name="Gradiente sem nome 118" x1="117.1" y1="472.99" x2="327.09" y2="472.99" xlink:href="#Gradiente_sem_nome_118"/>
    <linearGradient id="Gradiente_sem_nome_118-3" data-name="Gradiente sem nome 118" x1="117.24" y1="308.8" x2="291.59" y2="308.8" xlink:href="#Gradiente_sem_nome_118"/>
    <linearGradient id="Gradiente_sem_nome_118-4" data-name="Gradiente sem nome 118" x1="117.22" y1="246.72" x2="255.13" y2="246.72" xlink:href="#Gradiente_sem_nome_118"/>
    <linearGradient id="Gradiente_sem_nome_41-2" data-name="Gradiente sem nome 41" x1=".02" y1="645.15" x2="91.91" y2="645.15" xlink:href="#Gradiente_sem_nome_41"/>
    <linearGradient id="Gradiente_sem_nome_41-3" data-name="Gradiente sem nome 41" x1="115.29" y1="645.15" x2="140.84" y2="645.15" xlink:href="#Gradiente_sem_nome_41"/>
    <linearGradient id="Gradiente_sem_nome_41-4" data-name="Gradiente sem nome 41" x1="169.86" y1="645.15" x2="273.03" y2="645.15" xlink:href="#Gradiente_sem_nome_41"/>
    <linearGradient id="Gradiente_sem_nome_41-5" data-name="Gradiente sem nome 41" x1="300.89" y1="645.15" x2="392.78" y2="645.15" xlink:href="#Gradiente_sem_nome_41"/>
    <linearGradient id="Gradiente_sem_nome_41-6" data-name="Gradiente sem nome 41" x1="411.68" y1="645.15" x2="512.03" y2="645.15" xlink:href="#Gradiente_sem_nome_41"/>
    <linearGradient id="Gradiente_sem_nome_41-7" data-name="Gradiente sem nome 41" x1="531.6" y1="645.15" x2="620" y2="645.15" xlink:href="#Gradiente_sem_nome_41"/>
    <linearGradient id="Gradiente_sem_nome_41-8" data-name="Gradiente sem nome 41" x1="634.77" y1="645.15" x2="726.65" y2="645.15" xlink:href="#Gradiente_sem_nome_41"/>
  </defs>
  <g id="Camada_1-2" data-name="Camada 1">
    <g id="_4Uitj5" data-name="4Uitj5">
      <g>
        <path class="cls-2" d="M436.22,302.61c-19.78.2-32.65,17.21-33.62,35.53l-3.87,72.96c-1.07,20.11,13.19,27.97,26.22,42.12l-47.36,61.09c-2.41,3.11-5.67,1.48-7.78-.2-15.67-12.45-29.6-25.46-46.36-36.73-4.86-3.26-14.37-10.21-8.27-16.73l35.92-38.34c4.93-5.26,5.22-31.98.11-35.52l-34.41-23.84c-3.96-2.74-5.58-5.5-5.57-10.48l.07-108.79-.12-196.92c12.18-3.9,22.79-9.84,34.6-10.32l23.31-.96,15.65-21.37c1.56-2.13,3.69-3.73,5.93-3.57,2.46.17,5.14,2.17,6.37,4.87l12.48,27.3c3.04,6.65,4.08,13.47,6.37,21.21,25.87,11.07,50.57,23.97,77.33,33.26,12.69,4.4,36.05,1.86,48.2,10.72,9.4,6.85,17.99,14.33,27.85,20.62,9.47,6.04,24.19,2.51,26.21,13.29s4.3,21.93,5.17,33.39c.48,6.27-3.1,11.74-6.79,16.26l-24.06,29.48c-5.7,6.98-14.75,14.02-17.65,22.8l-11.58,73.69c-10.87-8.56-16.17-15.7-30.65-15.55l-73.72.75Z"/>
        <path class="cls-4" d="M117.64,185.15c-2-14.68-.08-28.67-.86-42.98-.23-4.21,2.39-7.13,5.86-8.83,12.05-5.89,24.28-9.94,36.03-16.49V50.76c-.01-2.98,1.15-5.26,4.13-5.92,10.9-2.39,21.96-2.04,32.68-1.96,4.35,5.45,6.75,10.57,11.51,15.26l30.14-13.62c.81-4.68-14.8-23.91-7.2-26.53L281.42.24c2.68-.92,5.94,1,7.34,2.19,2.01,1.72,3.11,4.66,3.11,8.51l-.13,254.83-62.39-31.42c-5.21-2.62-8.22-7.27-8.75-13.07l-1.4-18.83c-.11-1.45-.56-2.64-1.24-3.2-1.14-.93-2.83-.7-4.39-.03l-24.97,10.69c-8.36,3.58-20.12,4.03-28.91,1.12-4.93-1.63-37.07-20.28-42.06-25.89Z"/>
        <path class="cls-1" d="M605.04,410.47l-58.39-58.7c-8.49-8.53-22.42-24-32.62-29.65l-71.08.05c-6.1,0-13.19-1.49-15.43,4.11-4.87,12.16-11.63,76.91-11.63,76.91-1.35,13.65,2.72,17.76,10.02,25.04,0,0,66.44,70.45,92.89,88.59,0,0,2.85,2.1,13.05-5.79l46.63-44.99c2.85-2.79,4.61-4.69,6.9-7.05l20.28-20.81c7.68-7.88,7.23-19.81-.62-27.7ZM463.62,378.4c-8.12,0-14.7-6.58-14.7-14.71s6.58-14.71,14.7-14.71,14.7,6.58,14.7,14.71-6.58,14.71-14.7,14.71Z"/>
        <g>
          <path class="cls-3" d="M333.03,397.27c7.28,5.89,1.89,15.28-2.75,19.74-6.14,5.91-11.34,8.1-19.74,9.74-45.64,8.92-92.34,9.57-138.47,2.64-12.04-1.81-53.27-9.94-54.29-23.99-1.4-19.35-.35-37.53-.42-57.3,26.97,17.91,76.04,21.02,108.33,22.32,23.14.93,45.33-1.39,68.32-4.31,6.22,11.64,26.4,20.96,39.01,31.16Z"/>
          <path class="cls-7" d="M252.62,516.26c-13.31,1.13-53.7-.74-60.72-1.58-21.03-2.53-51.74-6.93-68.76-18.61-4.54-3.17-6.04-7.92-6.04-13.43l.03-53.27c11.49,7.7,23.41,11.87,37.11,14.78,48.41,10.28,97.13,10.28,147.62,2.5-10.84,11.12-11.6,27.16.14,36.67l25.09,20.34c-17.96,6.28-35.24,9.26-53.56,10.82l-20.91,1.78Z"/>
          <path class="cls-6" d="M164.84,346.47s-47.44-8.54-47.12-22.69l-.47-58.38c11.71,9.15,23.83,12.13,37.3,15.45,45.06,8.9,90.52,9.44,137.05,3.94l-.07,63.32c-42.99,6.1-84.78,5.25-126.69-1.64Z"/>
          <path class="cls-5" d="M201.66,225.6c4.18,26.18,34.79,30.26,53.47,44.35-28.78,1-55.69.02-83-4.11-12.63-1.91-50.47-9.55-54.46-21.86-3.47-10.72,14.1-18.95,23.44-20.84,12.69,12.31,44.78,10.12,60.55,2.46Z"/>
        </g>
      </g>
    </g>
    <g>
      <path class="cls-9" d="M.02,686.28l15.09-18.08c10.45,8.62,21.4,14.1,34.66,14.1,10.45,0,16.75-4.15,16.75-10.95v-.33c0-6.47-3.98-9.79-23.39-14.76-23.39-5.97-38.48-12.44-38.48-35.49v-.33c0-21.06,16.92-35,40.64-35,16.92,0,31.35,5.31,43.12,14.76l-13.27,19.24c-10.28-7.13-20.4-11.44-30.19-11.44s-14.93,4.48-14.93,10.12v.33c0,7.63,4.98,10.12,25.04,15.26,23.55,6.14,36.82,14.6,36.82,34.83v.33c0,23.05-17.58,35.99-42.63,35.99-17.58,0-35.33-6.14-49.26-18.58Z"/>
      <path class="cls-12" d="M115.29,587.1h25.54v116.1h-25.54v-116.1Z"/>
      <path class="cls-8" d="M169.86,587.1h23.55l54.4,71.49v-71.49h25.21v116.1h-21.73l-56.23-73.81v73.81h-25.21v-116.1Z"/>
      <path class="cls-10" d="M300.89,587.1h47.44c27.7,0,44.45,16.42,44.45,40.14v.33c0,26.87-20.9,40.8-46.94,40.8h-19.41v34.83h-25.54v-116.1ZM346.67,645.64c12.77,0,20.23-7.63,20.23-17.58v-.33c0-11.44-7.96-17.58-20.73-17.58h-19.74v35.49h20.23Z"/>
      <path class="cls-11" d="M411.68,587.1h53.07c14.76,0,26.21,4.15,33.84,11.78,6.47,6.47,9.95,15.59,9.95,26.54v.33c0,18.74-10.12,30.52-24.88,35.99l28.36,41.46h-29.85l-24.88-37.15h-20.07v37.15h-25.54v-116.1ZM463.1,643.49c12.44,0,19.57-6.63,19.57-16.42v-.33c0-10.95-7.63-16.59-20.07-16.59h-25.38v33.34h25.87Z"/>
      <path class="cls-13" d="M531.6,587.1h87.57v22.72h-62.2v23.55h54.73v22.72h-54.73v24.38h63.03v22.72h-88.4v-116.1Z"/>
      <path class="cls-14" d="M634.77,686.28l15.09-18.08c10.45,8.62,21.4,14.1,34.66,14.1,10.45,0,16.75-4.15,16.75-10.95v-.33c0-6.47-3.98-9.79-23.39-14.76-23.39-5.97-38.48-12.44-38.48-35.49v-.33c0-21.06,16.92-35,40.64-35,16.92,0,31.35,5.31,43.12,14.76l-13.27,19.24c-10.28-7.13-20.4-11.44-30.19-11.44s-14.93,4.48-14.93,10.12v.33c0,7.63,4.98,10.12,25.04,15.26,23.55,6.14,36.82,14.6,36.82,34.83v.33c0,23.05-17.58,35.99-42.63,35.99-17.58,0-35.33-6.14-49.26-18.58Z"/>
    </g>
    <g>
      <path d="M0,746.66l2.91-3.46c2.63,2.28,5.31,3.58,8.69,3.58,2.99,0,4.88-1.41,4.88-3.46v-.08c0-1.96-1.1-3.03-6.21-4.21-5.86-1.41-9.16-3.14-9.16-8.21v-.08c0-4.72,3.93-7.98,9.4-7.98,4.01,0,7.2,1.22,9.99,3.46l-2.6,3.65c-2.48-1.85-4.95-2.83-7.47-2.83-2.83,0-4.48,1.45-4.48,3.26v.08c0,2.12,1.26,3.07,6.57,4.32,5.82,1.41,8.81,3.5,8.81,8.06v.08c0,5.15-4.05,8.21-9.83,8.21-4.21,0-8.18-1.45-11.48-4.4Z"/>
      <path d="M26.54,722.22h5.11v4.52h-5.11v-4.52ZM26.7,729.92h4.8v20.75h-4.8v-20.75Z"/>
      <path d="M36.01,747.96l2.12-3.22c2.28,1.69,4.68,2.55,6.8,2.55s3.22-.86,3.22-2.24v-.08c0-1.61-2.2-2.16-4.64-2.91-3.07-.86-6.49-2.12-6.49-6.05v-.08c0-3.97,3.26-6.37,7.39-6.37,2.6,0,5.43.9,7.63,2.36l-1.89,3.38c-2.01-1.22-4.13-1.97-5.86-1.97-1.85,0-2.91.9-2.91,2.04v.08c0,1.53,2.24,2.16,4.68,2.95,3.03.94,6.45,2.32,6.45,6.05v.08c0,4.36-3.38,6.52-7.71,6.52-2.95,0-6.21-1.02-8.81-3.11Z"/>
      <path d="M57.99,744.93v-10.93h-2.63v-4.09h2.63v-5.7h4.76v5.7h5.58v4.09h-5.58v10.18c0,1.85.94,2.59,2.56,2.59,1.06,0,2.01-.24,2.95-.71v3.89c-1.18.67-2.48,1.06-4.29,1.06-3.5,0-5.98-1.53-5.98-6.09Z"/>
      <path d="M71.44,740.38v-.08c0-5.93,4.21-10.81,10.14-10.81,6.61,0,9.95,5.19,9.95,11.16,0,.43-.04.86-.08,1.34h-15.26c.51,3.38,2.91,5.27,5.98,5.27,2.32,0,3.97-.86,5.62-2.48l2.79,2.48c-1.97,2.36-4.68,3.89-8.49,3.89-6.02,0-10.66-4.36-10.66-10.77ZM86.81,738.84c-.31-3.07-2.12-5.46-5.27-5.46-2.91,0-4.95,2.24-5.39,5.46h10.66Z"/>
      <path d="M96.29,729.92h4.8v3.14c1.34-1.85,3.15-3.58,6.33-3.58,2.99,0,5.11,1.45,6.21,3.66,1.65-2.2,3.85-3.66,7-3.66,4.52,0,7.27,2.87,7.27,7.94v13.25h-4.76v-11.79c0-3.3-1.53-5.07-4.21-5.07s-4.44,1.81-4.44,5.15v11.71h-4.76v-11.83c0-3.22-1.57-5.03-4.21-5.03s-4.44,1.97-4.44,5.15v11.71h-4.8v-20.75Z"/>
      <path d="M132.22,744.7v-.08c0-4.48,3.54-6.68,8.61-6.68,2.32,0,3.97.35,5.58.86v-.51c0-2.95-1.81-4.52-5.15-4.52-2.32,0-4.05.51-5.94,1.3l-1.3-3.73c2.32-1.02,4.56-1.69,7.86-1.69,3.11,0,5.43.82,6.88,2.32,1.53,1.49,2.24,3.69,2.24,6.41v12.3h-4.64v-2.59c-1.42,1.69-3.58,3.03-6.76,3.03-3.89,0-7.39-2.24-7.39-6.41ZM146.49,743.21v-1.42c-1.22-.47-2.83-.82-4.72-.82-3.07,0-4.88,1.3-4.88,3.46v.08c0,2,1.77,3.14,4.05,3.14,3.15,0,5.54-1.81,5.54-4.44Z"/>
      <path d="M169.06,723.16h4.48l14.75,19.02v-19.02h4.76v27.51h-4.05l-15.18-19.57v19.57h-4.76v-27.51Z"/>
      <path d="M198.15,744.7v-.08c0-4.48,3.54-6.68,8.61-6.68,2.32,0,3.97.35,5.58.86v-.51c0-2.95-1.81-4.52-5.15-4.52-2.32,0-4.05.51-5.94,1.3l-1.3-3.73c2.32-1.02,4.56-1.69,7.86-1.69,3.11,0,5.43.82,6.88,2.32,1.53,1.49,2.24,3.69,2.24,6.41v12.3h-4.64v-2.59c-1.42,1.69-3.58,3.03-6.76,3.03-3.89,0-7.39-2.24-7.39-6.41ZM212.43,743.21v-1.42c-1.22-.47-2.83-.82-4.72-.82-3.07,0-4.88,1.3-4.88,3.46v.08c0,2,1.77,3.14,4.05,3.14,3.15,0,5.54-1.81,5.54-4.44Z"/>
      <path d="M221.51,740.41v-.08c0-5.9,4.56-10.85,10.81-10.85,3.89,0,6.33,1.45,8.3,3.58l-2.99,3.18c-1.45-1.49-2.99-2.59-5.35-2.59-3.46,0-6.02,2.99-6.02,6.6v.08c0,3.69,2.56,6.64,6.21,6.64,2.24,0,3.85-1.02,5.39-2.55l2.87,2.83c-2.04,2.28-4.44,3.89-8.49,3.89-6.17,0-10.73-4.83-10.73-10.73Z"/>
      <path d="M245.18,722.22h5.11v4.52h-5.11v-4.52ZM245.33,729.92h4.8v20.75h-4.8v-20.75Z"/>
      <path d="M255.2,740.41v-.08c0-5.93,4.72-10.85,11.09-10.85s11.05,4.83,11.05,10.77v.08c0,5.9-4.72,10.81-11.13,10.81s-11.01-4.83-11.01-10.73ZM272.58,740.41v-.08c0-3.66-2.63-6.68-6.37-6.68s-6.25,2.99-6.25,6.6v.08c0,3.62,2.63,6.64,6.33,6.64s6.29-2.99,6.29-6.56Z"/>
      <path d="M282.13,729.92h4.8v3.18c1.34-1.93,3.26-3.62,6.49-3.62,4.68,0,7.39,3.14,7.39,7.94v13.25h-4.76v-11.79c0-3.22-1.61-5.07-4.44-5.07s-4.68,1.93-4.68,5.15v11.71h-4.8v-20.75Z"/>
      <path d="M305.13,744.7v-.08c0-4.48,3.54-6.68,8.61-6.68,2.32,0,3.97.35,5.58.86v-.51c0-2.95-1.81-4.52-5.15-4.52-2.32,0-4.05.51-5.94,1.3l-1.3-3.73c2.32-1.02,4.56-1.69,7.86-1.69,3.11,0,5.43.82,6.88,2.32,1.53,1.49,2.24,3.69,2.24,6.41v12.3h-4.64v-2.59c-1.42,1.69-3.58,3.03-6.76,3.03-3.89,0-7.39-2.24-7.39-6.41ZM319.41,743.21v-1.42c-1.22-.47-2.83-.82-4.72-.82-3.07,0-4.88,1.3-4.88,3.46v.08c0,2,1.77,3.14,4.05,3.14,3.15,0,5.54-1.81,5.54-4.44Z"/>
      <path d="M329.86,721.98h4.8v28.69h-4.8v-28.69Z"/>
      <path d="M351.61,740.34v-.08c0-6.88,4.68-10.77,9.63-10.77,3.42,0,5.58,1.69,7.08,3.66v-11.16h4.76v28.69h-4.76v-3.46c-1.53,2.16-3.7,3.89-7.08,3.89-4.88,0-9.63-3.89-9.63-10.77ZM368.4,740.34v-.08c0-4.01-2.83-6.64-6.02-6.64s-5.98,2.55-5.98,6.64v.08c0,4.01,2.75,6.64,5.98,6.64s6.02-2.67,6.02-6.64Z"/>
      <path d="M377.91,740.38v-.08c0-5.93,4.21-10.81,10.14-10.81,6.61,0,9.95,5.19,9.95,11.16,0,.43-.04.86-.08,1.34h-15.26c.51,3.38,2.91,5.27,5.98,5.27,2.32,0,3.97-.86,5.62-2.48l2.79,2.48c-1.97,2.36-4.68,3.89-8.49,3.89-6.02,0-10.66-4.36-10.66-10.77ZM393.28,738.84c-.31-3.07-2.12-5.46-5.27-5.46-2.91,0-4.95,2.24-5.39,5.46h10.66Z"/>
      <path d="M415.14,723.16h10.85c6.45,0,10.46,3.66,10.46,9.2v.08c0,6.17-4.95,9.39-11.01,9.39h-5.47v8.84h-4.84v-27.51ZM425.6,737.47c3.66,0,5.94-2.04,5.94-4.91v-.08c0-3.22-2.32-4.91-5.94-4.91h-5.62v9.9h5.62Z"/>
      <path d="M440.82,729.92h4.8v4.68c1.3-3.1,3.7-5.23,7.35-5.07v5.03h-.27c-4.17,0-7.08,2.71-7.08,8.21v7.9h-4.8v-20.75Z"/>
      <path d="M455.24,740.38v-.08c0-5.93,4.21-10.81,10.14-10.81,6.61,0,9.95,5.19,9.95,11.16,0,.43-.04.86-.08,1.34h-15.26c.51,3.38,2.91,5.27,5.98,5.27,2.32,0,3.97-.86,5.62-2.48l2.79,2.48c-1.97,2.36-4.68,3.89-8.49,3.89-6.02,0-10.66-4.36-10.66-10.77ZM470.62,738.84c-.31-3.07-2.12-5.46-5.27-5.46-2.91,0-4.95,2.24-5.39,5.46h10.66Z"/>
      <path d="M483.83,755.43l3.14-4.64c-4.76-1.18-7.98-5.38-7.98-10.38v-.08c0-5.9,4.56-10.85,10.81-10.85,3.89,0,6.33,1.45,8.3,3.58l-2.99,3.18c-1.45-1.49-2.99-2.59-5.35-2.59-3.46,0-6.02,2.99-6.02,6.6v.08c0,3.69,2.56,6.64,6.21,6.64,2.24,0,3.85-1.02,5.39-2.55l2.87,2.83c-1.89,2.12-4.09,3.65-7.63,3.85l-2.6,6.09-4.17-1.77Z"/>
      <path d="M500.85,740.41v-.08c0-5.93,4.72-10.85,11.09-10.85s11.05,4.83,11.05,10.77v.08c0,5.9-4.72,10.81-11.13,10.81s-11.01-4.83-11.01-10.73ZM518.23,740.41v-.08c0-3.66-2.63-6.68-6.37-6.68s-6.25,2.99-6.25,6.6v.08c0,3.62,2.63,6.64,6.33,6.64s6.29-2.99,6.29-6.56Z"/>
      <path d="M526.13,747.96l2.12-3.22c2.28,1.69,4.68,2.55,6.8,2.55s3.22-.86,3.22-2.24v-.08c0-1.61-2.2-2.16-4.64-2.91-3.07-.86-6.49-2.12-6.49-6.05v-.08c0-3.97,3.26-6.37,7.39-6.37,2.6,0,5.43.9,7.63,2.36l-1.89,3.38c-2-1.22-4.13-1.97-5.86-1.97-1.85,0-2.91.9-2.91,2.04v.08c0,1.53,2.24,2.16,4.68,2.95,3.03.94,6.45,2.32,6.45,6.05v.08c0,4.36-3.38,6.52-7.71,6.52-2.95,0-6.21-1.02-8.81-3.11Z"/>
      <path d="M558.02,746.66l2.91-3.46c2.63,2.28,5.31,3.58,8.69,3.58,2.99,0,4.88-1.41,4.88-3.46v-.08c0-1.96-1.1-3.03-6.21-4.21-5.86-1.41-9.16-3.14-9.16-8.21v-.08c0-4.72,3.93-7.98,9.4-7.98,4.01,0,7.2,1.22,9.99,3.46l-2.59,3.65c-2.48-1.85-4.96-2.83-7.47-2.83-2.83,0-4.48,1.45-4.48,3.26v.08c0,2.12,1.26,3.07,6.57,4.32,5.82,1.41,8.81,3.5,8.81,8.06v.08c0,5.15-4.05,8.21-9.83,8.21-4.21,0-8.18-1.45-11.48-4.4Z"/>
      <path d="M583.34,740.38v-.08c0-5.93,4.21-10.81,10.15-10.81,6.61,0,9.95,5.19,9.95,11.16,0,.43-.04.86-.08,1.34h-15.26c.51,3.38,2.91,5.27,5.98,5.27,2.32,0,3.97-.86,5.62-2.48l2.79,2.48c-1.97,2.36-4.68,3.89-8.49,3.89-6.02,0-10.66-4.36-10.66-10.77ZM598.71,738.84c-.31-3.07-2.12-5.46-5.27-5.46-2.91,0-4.95,2.24-5.39,5.46h10.66Z"/>
      <path d="M609.21,744.93v-10.93h-2.63v-4.09h2.63v-5.7h4.76v5.7h5.58v4.09h-5.58v10.18c0,1.85.94,2.59,2.56,2.59,1.06,0,2-.24,2.95-.71v3.89c-1.18.67-2.48,1.06-4.29,1.06-3.5,0-5.98-1.53-5.98-6.09Z"/>
      <path d="M622.65,740.41v-.08c0-5.93,4.72-10.85,11.09-10.85s11.05,4.83,11.05,10.77v.08c0,5.9-4.72,10.81-11.13,10.81s-11.01-4.83-11.01-10.73ZM640.03,740.41v-.08c0-3.66-2.63-6.68-6.37-6.68s-6.25,2.99-6.25,6.6v.08c0,3.62,2.63,6.64,6.33,6.64s6.29-2.99,6.29-6.56Z"/>
      <path d="M649.59,729.92h4.8v4.68c1.3-3.1,3.7-5.23,7.35-5.07v5.03h-.27c-4.17,0-7.08,2.71-7.08,8.21v7.9h-4.8v-20.75Z"/>
      <path d="M665.94,722.22h5.11v4.52h-5.11v-4.52ZM666.1,729.92h4.8v20.75h-4.8v-20.75Z"/>
      <path d="M675.69,744.7v-.08c0-4.48,3.54-6.68,8.61-6.68,2.32,0,3.97.35,5.58.86v-.51c0-2.95-1.81-4.52-5.15-4.52-2.32,0-4.05.51-5.94,1.3l-1.3-3.73c2.32-1.02,4.56-1.69,7.86-1.69,3.11,0,5.43.82,6.88,2.32,1.53,1.49,2.24,3.69,2.24,6.41v12.3h-4.64v-2.59c-1.42,1.69-3.58,3.03-6.76,3.03-3.89,0-7.39-2.24-7.39-6.41ZM689.96,743.21v-1.42c-1.22-.47-2.83-.82-4.72-.82-3.07,0-4.88,1.3-4.88,3.46v.08c0,2,1.77,3.14,4.05,3.14,3.15,0,5.54-1.81,5.54-4.44Z"/>
      <path d="M700.26,722.22h5.11v4.52h-5.11v-4.52ZM700.42,729.92h4.8v20.75h-4.8v-20.75Z"/>
      <path d="M709.74,747.96l2.12-3.22c2.28,1.69,4.68,2.55,6.8,2.55s3.22-.86,3.22-2.24v-.08c0-1.61-2.2-2.16-4.64-2.91-3.07-.86-6.49-2.12-6.49-6.05v-.08c0-3.97,3.26-6.37,7.39-6.37,2.6,0,5.43.9,7.63,2.36l-1.89,3.38c-2-1.22-4.13-1.97-5.86-1.97-1.85,0-2.91.9-2.91,2.04v.08c0,1.53,2.24,2.16,4.68,2.95,3.03.94,6.45,2.32,6.45,6.05v.08c0,4.36-3.38,6.52-7.71,6.52-2.95,0-6.21-1.02-8.81-3.11Z"/>
    </g>
  </g>
</svg>