<?xml version="1.0" encoding="UTF-8"?>
<svg id="Camada_2" data-name="Camada 2" xmlns="http://www.w3.org/2000/svg" xmlns:xlink="http://www.w3.org/1999/xlink" viewBox="0 0 494.49 517.08">
  <defs>
    <style>
      .cls-1 {
        fill: url(#Gradiente_sem_nome_79);
      }

      .cls-2 {
        fill: url(#Gradiente_sem_nome_41);
      }

      .cls-3 {
        fill: url(#Gradiente_sem_nome_118);
      }

      .cls-4 {
        fill: url(#Gradiente_sem_nome_273);
      }

      .cls-5 {
        fill: url(#Gradiente_sem_nome_118-4);
      }

      .cls-6 {
        fill: url(#Gradiente_sem_nome_118-3);
      }

      .cls-7 {
        fill: url(#Gradiente_sem_nome_118-2);
      }
    </style>
    <linearGradient id="Gradiente_sem_nome_41" data-name="Gradiente sem nome 41" x1="194.49" y1="263.3" x2="484.01" y2="263.3" gradientUnits="userSpaceOnUse">
      <stop offset="0" stop-color="#2d9b03"/>
      <stop offset="1" stop-color="#36b515"/>
    </linearGradient>
    <linearGradient id="Gradiente_sem_nome_273" data-name="Gradiente sem nome 273" x1="0" y1="132.89" x2="175.17" y2="132.89" gradientUnits="userSpaceOnUse">
      <stop offset="0" stop-color="#36b515"/>
      <stop offset="1" stop-color="#2d9b03"/>
    </linearGradient>
    <linearGradient id="Gradiente_sem_nome_79" data-name="Gradiente sem nome 79" x1="298.94" y1="419.54" x2="494.49" y2="419.54" gradientUnits="userSpaceOnUse">
      <stop offset="0" stop-color="#f5ca1a"/>
      <stop offset="1" stop-color="#f4b80d"/>
    </linearGradient>
    <linearGradient id="Gradiente_sem_nome_118" data-name="Gradiente sem nome 118" x1=".36" y1="391.09" x2="219.9" y2="391.09" gradientUnits="userSpaceOnUse">
      <stop offset="0" stop-color="#4375e5"/>
      <stop offset=".54" stop-color="#3e60de"/>
      <stop offset="1" stop-color="#3c53da"/>
    </linearGradient>
    <linearGradient id="Gradiente_sem_nome_118-2" data-name="Gradiente sem nome 118" x1=".41" y1="472.99" x2="210.39" y2="472.99" xlink:href="#Gradiente_sem_nome_118"/>
    <linearGradient id="Gradiente_sem_nome_118-3" data-name="Gradiente sem nome 118" x1=".55" y1="308.8" x2="174.9" y2="308.8" xlink:href="#Gradiente_sem_nome_118"/>
    <linearGradient id="Gradiente_sem_nome_118-4" data-name="Gradiente sem nome 118" x1=".53" y1="246.72" x2="138.44" y2="246.72" xlink:href="#Gradiente_sem_nome_118"/>
  </defs>
  <g id="Camada_1-2" data-name="Camada 1">
    <g id="_4Uitj5" data-name="4Uitj5">
      <g>
        <path class="cls-2" d="M319.52,302.61c-19.78.2-32.65,17.21-33.62,35.53l-3.87,72.96c-1.07,20.11,13.19,27.97,26.22,42.12l-47.36,61.09c-2.41,3.11-5.67,1.48-7.78-.2-15.67-12.45-29.6-25.46-46.36-36.73-4.86-3.26-14.37-10.21-8.27-16.73l35.92-38.34c4.93-5.26,5.22-31.98.11-35.52l-34.41-23.84c-3.96-2.74-5.58-5.5-5.57-10.48l.07-108.79-.12-196.92c12.18-3.9,22.79-9.84,34.6-10.32l23.31-.96,15.65-21.37c1.56-2.13,3.69-3.73,5.93-3.57,2.46.17,5.14,2.17,6.37,4.87l12.48,27.3c3.04,6.65,4.08,13.47,6.37,21.21,25.87,11.07,50.57,23.97,77.33,33.26,12.69,4.4,36.05,1.86,48.2,10.72,9.4,6.85,17.99,14.33,27.85,20.62s24.19,2.51,26.21,13.29c2.07,11.02,4.3,21.93,5.17,33.39.48,6.27-3.1,11.74-6.79,16.26l-24.06,29.48c-5.7,6.98-14.75,14.02-17.65,22.8l-11.58,73.69c-10.87-8.56-16.17-15.7-30.65-15.55l-73.72.75Z"/>
        <path class="cls-4" d="M.94,185.15c-2-14.68-.08-28.67-.86-42.98-.23-4.21,2.39-7.13,5.86-8.83,12.05-5.89,24.28-9.94,36.03-16.49V50.76c-.01-2.98,1.15-5.26,4.13-5.92,10.9-2.39,21.96-2.04,32.68-1.96,4.35,5.45,6.75,10.57,11.51,15.26l30.14-13.62c.81-4.68-14.8-23.91-7.2-26.53L164.72.24c2.68-.92,5.94,1,7.34,2.19,2.01,1.72,3.11,4.66,3.11,8.51l-.13,254.83-62.39-31.42c-5.21-2.62-8.22-7.27-8.75-13.07l-1.4-18.83c-.11-1.45-.56-2.64-1.24-3.2-1.14-.93-2.83-.7-4.39-.03l-24.97,10.69c-8.36,3.58-20.12,4.03-28.91,1.12-4.93-1.63-37.07-20.28-42.06-25.89Z"/>
        <path class="cls-1" d="M488.34,410.47l-58.39-58.7c-8.49-8.53-22.42-24-32.62-29.65l-71.08.05c-6.1,0-13.19-1.49-15.43,4.11-4.87,12.16-11.63,76.91-11.63,76.91-1.35,13.65,2.72,17.76,10.02,25.04,0,0,66.44,70.45,92.89,88.59,0,0,2.85,2.1,13.05-5.79l46.63-44.99c2.85-2.79,4.61-4.69,6.9-7.05l20.28-20.81c7.68-7.88,7.23-19.81-.62-27.7ZM346.93,378.4c-8.12,0-14.7-6.58-14.7-14.71s6.58-14.71,14.7-14.71,14.7,6.58,14.7,14.71-6.58,14.71-14.7,14.71Z"/>
        <g>
          <path class="cls-3" d="M216.33,397.27c7.28,5.89,1.89,15.28-2.75,19.74-6.14,5.91-11.34,8.1-19.74,9.74-45.64,8.92-92.34,9.57-138.47,2.64-12.04-1.81-53.27-9.94-54.29-23.99-1.4-19.35-.35-37.53-.42-57.3,26.97,17.91,76.04,21.02,108.33,22.32,23.14.93,45.33-1.39,68.32-4.31,6.22,11.64,26.4,20.96,39.01,31.16Z"/>
          <path class="cls-7" d="M135.92,516.26c-13.31,1.13-53.7-.74-60.72-1.58-21.03-2.53-51.74-6.93-68.76-18.61-4.54-3.17-6.04-7.92-6.04-13.43l.03-53.27c11.49,7.7,23.41,11.87,37.11,14.78,48.41,10.28,97.13,10.28,147.62,2.5-10.84,11.12-11.6,27.16.14,36.67l25.09,20.34c-17.96,6.28-35.24,9.26-53.56,10.82l-20.91,1.78Z"/>
          <path class="cls-6" d="M48.14,346.47S.71,337.93,1.02,323.77l-.47-58.38c11.71,9.15,23.83,12.13,37.3,15.45,45.06,8.9,90.52,9.44,137.05,3.94l-.07,63.32c-42.99,6.1-84.78,5.25-126.69-1.64Z"/>
          <path class="cls-5" d="M84.96,225.6c4.18,26.18,34.79,30.26,53.47,44.35-28.78,1-55.69.02-83-4.11-12.63-1.91-50.47-9.55-54.46-21.86-3.47-10.72,14.1-18.95,23.44-20.84,12.69,12.31,44.78,10.12,60.55,2.46Z"/>
        </g>
      </g>
    </g>
  </g>
</svg>