<?xml version="1.0" encoding="UTF-8"?>
<svg id="Camada_2" data-name="Camada 2" xmlns="http://www.w3.org/2000/svg" xmlns:xlink="http://www.w3.org/1999/xlink" viewBox="0 0 996.8 235.61">
  <defs>
    <style>
      .cls-1 {
        fill: url(#Gradiente_sem_nome_41);
      }

      .cls-2 {
        fill: url(#Gradiente_sem_nome_41-4);
      }

      .cls-3 {
        fill: url(#Gradiente_sem_nome_41-2);
      }

      .cls-4 {
        fill: url(#Gradiente_sem_nome_41-5);
      }

      .cls-5 {
        fill: url(#Gradiente_sem_nome_41-6);
      }

      .cls-6 {
        fill: url(#Gradiente_sem_nome_41-3);
      }

      .cls-7 {
        fill: url(#Gradiente_sem_nome_41-7);
      }
    </style>
    <linearGradient id="Gradiente_sem_nome_41" data-name="Gradiente sem nome 41" x1=".03" y1="81.91" x2="126.08" y2="81.91" gradientUnits="userSpaceOnUse">
      <stop offset="0" stop-color="#2d9b03"/>
      <stop offset="1" stop-color="#36b515"/>
    </linearGradient>
    <linearGradient id="Gradiente_sem_nome_41-2" data-name="Gradiente sem nome 41" x1="158.16" y1="81.91" x2="193.19" y2="81.91" xlink:href="#Gradiente_sem_nome_41"/>
    <linearGradient id="Gradiente_sem_nome_41-3" data-name="Gradiente sem nome 41" x1="233.01" y1="81.91" x2="374.53" y2="81.91" xlink:href="#Gradiente_sem_nome_41"/>
    <linearGradient id="Gradiente_sem_nome_41-4" data-name="Gradiente sem nome 41" x1="412.75" y1="81.91" x2="538.8" y2="81.91" xlink:href="#Gradiente_sem_nome_41"/>
    <linearGradient id="Gradiente_sem_nome_41-5" data-name="Gradiente sem nome 41" x1="564.74" y1="81.91" x2="702.39" y2="81.91" xlink:href="#Gradiente_sem_nome_41"/>
    <linearGradient id="Gradiente_sem_nome_41-6" data-name="Gradiente sem nome 41" x1="729.23" y1="81.91" x2="850.5" y2="81.91" xlink:href="#Gradiente_sem_nome_41"/>
    <linearGradient id="Gradiente_sem_nome_41-7" data-name="Gradiente sem nome 41" x1="870.75" x2="996.8" xlink:href="#Gradiente_sem_nome_41"/>
  </defs>
  <g id="Camada_1-2" data-name="Camada 1">
    <g>
      <path class="cls-1" d="M.03,138.33l20.7-24.8c14.33,11.83,29.35,19.34,47.55,19.34,14.33,0,22.98-5.69,22.98-15.02v-.46c0-8.87-5.46-13.42-32.08-20.25C27.1,88.96,6.4,80.09,6.4,48.46v-.46C6.4,19.11,29.61,0,62.14,0c23.21,0,43,7.28,59.16,20.25l-18.2,26.39c-14.11-9.78-27.98-15.7-41.41-15.7s-20.48,6.14-20.48,13.88v.45c0,10.47,6.83,13.88,34.36,20.93,32.31,8.42,50.51,20.02,50.51,47.78v.46c0,31.63-24.12,49.37-58.47,49.37-24.12,0-48.46-8.42-67.57-25.48Z"/>
      <path class="cls-3" d="M158.16,2.27h35.04v159.27h-35.04V2.27Z"/>
      <path class="cls-6" d="M233.01,2.27h32.31l74.63,98.06V2.27h34.58v159.27h-29.81l-77.13-101.25v101.25h-34.58V2.27Z"/>
      <path class="cls-2" d="M412.75,2.27h65.07c38,0,60.98,22.52,60.98,55.06v.45c0,36.86-28.67,55.97-64.39,55.97h-26.62v47.78h-35.04V2.27ZM475.55,82.59c17.52,0,27.76-10.47,27.76-24.12v-.45c0-15.7-10.92-24.12-28.44-24.12h-27.08v48.69h27.76Z"/>
      <path class="cls-4" d="M564.74,2.27h72.81c20.25,0,35.95,5.69,46.41,16.15,8.87,8.87,13.65,21.39,13.65,36.4v.45c0,25.71-13.88,41.86-34.13,49.37l38.91,56.88h-40.95l-34.13-50.96h-27.53v50.96h-35.04V2.27ZM635.27,79.63c17.06,0,26.85-9.1,26.85-22.52v-.45c0-15.02-10.47-22.75-27.53-22.75h-34.81v45.73h35.49Z"/>
      <path class="cls-5" d="M729.23,2.27h120.13v31.17h-85.32v32.31h75.08v31.17h-75.08v33.45h86.46v31.17h-121.27V2.27Z"/>
      <path class="cls-7" d="M870.75,138.33l20.7-24.8c14.33,11.83,29.35,19.34,47.55,19.34,14.33,0,22.98-5.69,22.98-15.02v-.46c0-8.87-5.46-13.42-32.08-20.25-32.08-8.19-52.79-17.06-52.79-48.69v-.46c0-28.89,23.21-48.01,55.74-48.01,23.21,0,43,7.28,59.16,20.25l-18.2,26.39c-14.11-9.78-27.98-15.7-41.41-15.7s-20.48,6.14-20.48,13.88v.45c0,10.47,6.83,13.88,34.36,20.93,32.31,8.42,50.51,20.02,50.51,47.78v.46c0,31.63-24.12,49.37-58.47,49.37-24.12,0-48.46-8.42-67.57-25.48Z"/>
    </g>
    <g>
      <path d="M0,221.17l3.99-4.74c3.61,3.13,7.28,4.91,11.92,4.91,4.1,0,6.69-1.94,6.69-4.74v-.11c0-2.7-1.51-4.15-8.52-5.77-8.04-1.94-12.57-4.31-12.57-11.27v-.11c0-6.47,5.39-10.94,12.89-10.94,5.5,0,9.87,1.67,13.7,4.74l-3.56,5.01c-3.4-2.53-6.8-3.88-10.25-3.88-3.88,0-6.15,2-6.15,4.48v.11c0,2.91,1.73,4.21,9.01,5.93,7.98,1.94,12.08,4.8,12.08,11.05v.11c0,7.06-5.56,11.27-13.48,11.27-5.77,0-11.22-2-15.75-6.04Z"/>
      <path d="M36.4,187.63h7.01v6.2h-7.01v-6.2ZM36.62,198.2h6.58v28.47h-6.58v-28.47Z"/>
      <path d="M49.4,222.94l2.91-4.42c3.13,2.32,6.42,3.5,9.33,3.5s4.42-1.19,4.42-3.07v-.11c0-2.21-3.02-2.97-6.36-3.99-4.21-1.19-8.9-2.91-8.9-8.3v-.11c0-5.45,4.48-8.73,10.14-8.73,3.56,0,7.44,1.24,10.46,3.23l-2.59,4.64c-2.75-1.67-5.66-2.7-8.04-2.7-2.54,0-3.99,1.24-3.99,2.8v.11c0,2.1,3.07,2.97,6.42,4.04,4.15,1.29,8.85,3.18,8.85,8.3v.11c0,5.98-4.64,8.95-10.57,8.95-4.05,0-8.52-1.4-12.08-4.26Z"/>
      <path d="M79.55,218.79v-14.99h-3.61v-5.61h3.61v-7.82h6.53v7.82h7.66v5.61h-7.66v13.96c0,2.53,1.29,3.56,3.51,3.56,1.46,0,2.75-.32,4.05-.97v5.34c-1.62.92-3.4,1.46-5.88,1.46-4.8,0-8.2-2.1-8.2-8.36Z"/>
      <path d="M98,212.54v-.11c0-8.14,5.77-14.83,13.92-14.83,9.06,0,13.65,7.12,13.65,15.31,0,.59-.05,1.19-.11,1.83h-20.93c.7,4.64,3.99,7.23,8.2,7.23,3.18,0,5.45-1.19,7.71-3.4l3.83,3.4c-2.7,3.23-6.42,5.34-11.65,5.34-8.25,0-14.62-5.98-14.62-14.77ZM119.09,210.44c-.43-4.21-2.91-7.49-7.23-7.49-3.99,0-6.8,3.07-7.39,7.49h14.62Z"/>
      <path d="M132.08,198.2h6.58v4.31c1.83-2.53,4.31-4.91,8.68-4.91,4.1,0,7.01,2,8.52,5.01,2.27-3.02,5.29-5.01,9.6-5.01,6.2,0,9.98,3.94,9.98,10.89v18.17h-6.53v-16.17c0-4.53-2.1-6.96-5.77-6.96s-6.1,2.48-6.1,7.06v16.07h-6.53v-16.23c0-4.42-2.16-6.9-5.77-6.9s-6.09,2.7-6.09,7.06v16.07h-6.58v-28.47Z"/>
      <path d="M181.38,218.47v-.11c0-6.15,4.86-9.17,11.81-9.17,3.18,0,5.45.49,7.66,1.19v-.7c0-4.04-2.48-6.2-7.07-6.2-3.18,0-5.56.7-8.14,1.78l-1.78-5.12c3.18-1.4,6.26-2.32,10.79-2.32,4.26,0,7.44,1.13,9.44,3.18,2.1,2.05,3.07,5.07,3.07,8.79v16.88h-6.37v-3.56c-1.94,2.32-4.91,4.15-9.28,4.15-5.34,0-10.14-3.07-10.14-8.79ZM200.96,216.42v-1.94c-1.67-.65-3.88-1.13-6.47-1.13-4.21,0-6.69,1.78-6.69,4.74v.11c0,2.75,2.43,4.31,5.56,4.31,4.31,0,7.61-2.48,7.61-6.09Z"/>
      <path d="M231.91,188.92h6.15l20.23,26.09v-26.09h6.53v37.74h-5.56l-20.82-26.85v26.85h-6.53v-37.74Z"/>
      <path d="M271.82,218.47v-.11c0-6.15,4.86-9.17,11.81-9.17,3.18,0,5.45.49,7.66,1.19v-.7c0-4.04-2.48-6.2-7.07-6.2-3.18,0-5.56.7-8.14,1.78l-1.78-5.12c3.18-1.4,6.26-2.32,10.79-2.32,4.26,0,7.44,1.13,9.44,3.18,2.1,2.05,3.07,5.07,3.07,8.79v16.88h-6.36v-3.56c-1.94,2.32-4.91,4.15-9.28,4.15-5.34,0-10.14-3.07-10.14-8.79ZM291.4,216.42v-1.94c-1.67-.65-3.88-1.13-6.47-1.13-4.21,0-6.69,1.78-6.69,4.74v.11c0,2.75,2.43,4.31,5.56,4.31,4.31,0,7.61-2.48,7.61-6.09Z"/>
      <path d="M303.86,212.59v-.11c0-8.09,6.26-14.88,14.83-14.88,5.34,0,8.68,2,11.38,4.91l-4.1,4.37c-2-2.05-4.1-3.56-7.34-3.56-4.75,0-8.25,4.1-8.25,9.06v.11c0,5.07,3.51,9.11,8.52,9.11,3.07,0,5.29-1.4,7.39-3.5l3.94,3.88c-2.81,3.13-6.1,5.34-11.65,5.34-8.47,0-14.73-6.63-14.73-14.72Z"/>
      <path d="M336.33,187.63h7.01v6.2h-7.01v-6.2ZM336.54,198.2h6.58v28.47h-6.58v-28.47Z"/>
      <path d="M350.08,212.59v-.11c0-8.14,6.47-14.88,15.21-14.88s15.16,6.63,15.16,14.77v.11c0,8.09-6.47,14.83-15.27,14.83s-15.1-6.63-15.1-14.72ZM373.92,212.59v-.11c0-5.01-3.61-9.17-8.74-9.17s-8.58,4.1-8.58,9.06v.11c0,4.96,3.61,9.11,8.68,9.11s8.63-4.1,8.63-9Z"/>
      <path d="M387.02,198.2h6.58v4.37c1.83-2.64,4.48-4.96,8.9-4.96,6.42,0,10.14,4.31,10.14,10.89v18.17h-6.53v-16.17c0-4.42-2.21-6.96-6.09-6.96s-6.42,2.64-6.42,7.06v16.07h-6.58v-28.47Z"/>
      <path d="M418.58,218.47v-.11c0-6.15,4.86-9.17,11.81-9.17,3.18,0,5.45.49,7.66,1.19v-.7c0-4.04-2.48-6.2-7.07-6.2-3.18,0-5.56.7-8.14,1.78l-1.78-5.12c3.18-1.4,6.26-2.32,10.79-2.32,4.26,0,7.44,1.13,9.44,3.18,2.1,2.05,3.07,5.07,3.07,8.79v16.88h-6.36v-3.56c-1.94,2.32-4.91,4.15-9.28,4.15-5.34,0-10.14-3.07-10.14-8.79ZM438.16,216.42v-1.94c-1.67-.65-3.88-1.13-6.47-1.13-4.21,0-6.69,1.78-6.69,4.74v.11c0,2.75,2.43,4.31,5.56,4.31,4.31,0,7.61-2.48,7.61-6.09Z"/>
      <path d="M452.5,187.31h6.58v39.36h-6.58v-39.36Z"/>
      <path d="M482.32,212.49v-.11c0-9.43,6.42-14.77,13.22-14.77,4.69,0,7.66,2.32,9.71,5.01v-15.31h6.53v39.36h-6.53v-4.74c-2.1,2.97-5.07,5.34-9.71,5.34-6.69,0-13.22-5.34-13.22-14.77ZM505.36,212.49v-.11c0-5.5-3.88-9.11-8.25-9.11s-8.2,3.5-8.2,9.11v.11c0,5.5,3.78,9.11,8.2,9.11s8.25-3.67,8.25-9.11Z"/>
      <path d="M518.41,212.54v-.11c0-8.14,5.77-14.83,13.92-14.83,9.06,0,13.65,7.12,13.65,15.31,0,.59-.05,1.19-.11,1.83h-20.93c.7,4.64,3.99,7.23,8.2,7.23,3.18,0,5.45-1.19,7.71-3.4l3.83,3.4c-2.7,3.23-6.42,5.34-11.65,5.34-8.25,0-14.62-5.98-14.62-14.77ZM539.5,210.44c-.43-4.21-2.91-7.49-7.23-7.49-3.99,0-6.8,3.07-7.39,7.49h14.62Z"/>
      <path d="M569.48,188.92h14.89c8.85,0,14.35,5.01,14.35,12.62v.11c0,8.46-6.8,12.89-15.1,12.89h-7.5v12.13h-6.63v-37.74ZM583.83,208.55c5.02,0,8.14-2.8,8.14-6.74v-.11c0-4.42-3.18-6.74-8.14-6.74h-7.71v13.59h7.71Z"/>
      <path d="M604.7,198.2h6.58v6.42c1.78-4.26,5.07-7.17,10.09-6.96v6.9h-.38c-5.72,0-9.71,3.72-9.71,11.27v10.84h-6.58v-28.47Z"/>
      <path d="M624.49,212.54v-.11c0-8.14,5.77-14.83,13.92-14.83,9.06,0,13.65,7.12,13.65,15.31,0,.59-.05,1.19-.11,1.83h-20.93c.7,4.64,3.99,7.23,8.2,7.23,3.18,0,5.45-1.19,7.71-3.4l3.83,3.4c-2.7,3.23-6.42,5.34-11.65,5.34-8.25,0-14.62-5.98-14.62-14.77ZM645.58,210.44c-.43-4.21-2.91-7.49-7.23-7.49-3.99,0-6.8,3.07-7.39,7.49h14.62Z"/>
      <path d="M663.7,233.19l4.31-6.36c-6.53-1.62-10.95-7.39-10.95-14.23v-.11c0-8.09,6.26-14.88,14.83-14.88,5.34,0,8.68,2,11.38,4.91l-4.1,4.37c-2-2.05-4.1-3.56-7.34-3.56-4.75,0-8.25,4.1-8.25,9.06v.11c0,5.07,3.51,9.11,8.52,9.11,3.07,0,5.29-1.4,7.39-3.5l3.94,3.88c-2.59,2.91-5.61,5.01-10.46,5.28l-3.56,8.36-5.72-2.43Z"/>
      <path d="M687.05,212.59v-.11c0-8.14,6.47-14.88,15.21-14.88s15.16,6.63,15.16,14.77v.11c0,8.09-6.47,14.83-15.26,14.83s-15.1-6.63-15.1-14.72ZM710.9,212.59v-.11c0-5.01-3.61-9.17-8.74-9.17s-8.58,4.1-8.58,9.06v.11c0,4.96,3.61,9.11,8.68,9.11s8.63-4.1,8.63-9Z"/>
      <path d="M721.73,222.94l2.91-4.42c3.13,2.32,6.42,3.5,9.33,3.5s4.42-1.19,4.42-3.07v-.11c0-2.21-3.02-2.97-6.37-3.99-4.21-1.19-8.9-2.91-8.9-8.3v-.11c0-5.45,4.48-8.73,10.14-8.73,3.56,0,7.44,1.24,10.46,3.23l-2.59,4.64c-2.75-1.67-5.66-2.7-8.04-2.7-2.54,0-3.99,1.24-3.99,2.8v.11c0,2.1,3.07,2.97,6.42,4.04,4.15,1.29,8.85,3.18,8.85,8.3v.11c0,5.98-4.64,8.95-10.57,8.95-4.05,0-8.52-1.4-12.08-4.26Z"/>
      <path d="M765.47,221.17l3.99-4.74c3.61,3.13,7.28,4.91,11.92,4.91,4.1,0,6.69-1.94,6.69-4.74v-.11c0-2.7-1.51-4.15-8.52-5.77-8.04-1.94-12.57-4.31-12.57-11.27v-.11c0-6.47,5.39-10.94,12.89-10.94,5.5,0,9.87,1.67,13.7,4.74l-3.56,5.01c-3.4-2.53-6.8-3.88-10.25-3.88-3.88,0-6.15,2-6.15,4.48v.11c0,2.91,1.73,4.21,9.01,5.93,7.98,1.94,12.08,4.8,12.08,11.05v.11c0,7.06-5.56,11.27-13.49,11.27-5.77,0-11.22-2-15.75-6.04Z"/>
      <path d="M800.21,212.54v-.11c0-8.14,5.77-14.83,13.92-14.83,9.06,0,13.65,7.12,13.65,15.31,0,.59-.05,1.19-.11,1.83h-20.93c.7,4.64,3.99,7.23,8.2,7.23,3.18,0,5.45-1.19,7.71-3.4l3.83,3.4c-2.7,3.23-6.42,5.34-11.65,5.34-8.25,0-14.62-5.98-14.62-14.77ZM821.3,210.44c-.43-4.21-2.91-7.49-7.23-7.49-3.99,0-6.8,3.07-7.39,7.49h14.62Z"/>
      <path d="M835.69,218.79v-14.99h-3.61v-5.61h3.61v-7.82h6.53v7.82h7.66v5.61h-7.66v13.96c0,2.53,1.29,3.56,3.51,3.56,1.46,0,2.75-.32,4.04-.97v5.34c-1.62.92-3.4,1.46-5.88,1.46-4.8,0-8.2-2.1-8.2-8.36Z"/>
      <path d="M854.14,212.59v-.11c0-8.14,6.47-14.88,15.21-14.88s15.16,6.63,15.16,14.77v.11c0,8.09-6.47,14.83-15.26,14.83s-15.1-6.63-15.1-14.72ZM877.98,212.59v-.11c0-5.01-3.61-9.17-8.74-9.17s-8.58,4.1-8.58,9.06v.11c0,4.96,3.61,9.11,8.68,9.11s8.63-4.1,8.63-9Z"/>
      <path d="M891.08,198.2h6.58v6.42c1.78-4.26,5.07-7.17,10.09-6.96v6.9h-.38c-5.72,0-9.71,3.72-9.71,11.27v10.84h-6.58v-28.47Z"/>
      <path d="M913.52,187.63h7.01v6.2h-7.01v-6.2ZM913.74,198.2h6.58v28.47h-6.58v-28.47Z"/>
      <path d="M926.9,218.47v-.11c0-6.15,4.85-9.17,11.81-9.17,3.18,0,5.45.49,7.66,1.19v-.7c0-4.04-2.48-6.2-7.07-6.2-3.18,0-5.55.7-8.14,1.78l-1.78-5.12c3.18-1.4,6.26-2.32,10.79-2.32,4.26,0,7.44,1.13,9.44,3.18,2.1,2.05,3.07,5.07,3.07,8.79v16.88h-6.36v-3.56c-1.94,2.32-4.91,4.15-9.28,4.15-5.34,0-10.14-3.07-10.14-8.79ZM946.47,216.42v-1.94c-1.67-.65-3.88-1.13-6.47-1.13-4.21,0-6.69,1.78-6.69,4.74v.11c0,2.75,2.43,4.31,5.55,4.31,4.32,0,7.61-2.48,7.61-6.09Z"/>
      <path d="M960.6,187.63h7.01v6.2h-7.01v-6.2ZM960.82,198.2h6.58v28.47h-6.58v-28.47Z"/>
      <path d="M973.6,222.94l2.91-4.42c3.13,2.32,6.42,3.5,9.33,3.5s4.42-1.19,4.42-3.07v-.11c0-2.21-3.02-2.97-6.37-3.99-4.21-1.19-8.9-2.91-8.9-8.3v-.11c0-5.45,4.48-8.73,10.14-8.73,3.56,0,7.44,1.24,10.46,3.23l-2.59,4.64c-2.75-1.67-5.66-2.7-8.04-2.7-2.54,0-3.99,1.24-3.99,2.8v.11c0,2.1,3.07,2.97,6.42,4.04,4.15,1.29,8.85,3.18,8.85,8.3v.11c0,5.98-4.64,8.95-10.57,8.95-4.05,0-8.52-1.4-12.08-4.26Z"/>
    </g>
  </g>
</svg>