<?xml version="1.0" encoding="UTF-8"?>
<svg id="Camada_2" xmlns="http://www.w3.org/2000/svg" xmlns:xlink="http://www.w3.org/1999/xlink" version="1.1" viewBox="0 0 1537 517.1">
  <!-- Generator: Adobe Illustrator 30.2.1, SVG Export Plug-In . SVG Version: 2.1.1 Build 1)  -->
  <defs>
    <style>
      .st0 {
        fill: url(#Gradiente_sem_nome_89);
      }

      .st1 {
        fill: url(#Gradiente_sem_nome_87);
      }

      .st2 {
        fill: url(#Gradiente_sem_nome_81);
      }

      .st3 {
        fill: url(#Gradiente_sem_nome_88);
      }

      .st4 {
        fill: url(#Gradiente_sem_nome_84);
      }

      .st5 {
        fill: url(#Gradiente_sem_nome_86);
      }

      .st6 {
        fill: url(#Gradiente_sem_nome_85);
      }

      .st7 {
        fill: url(#Gradiente_sem_nome_83);
      }

      .st8 {
        fill: url(#Gradiente_sem_nome_82);
      }

      .st9 {
        fill: url(#Gradiente_sem_nome_12);
      }

      .st10 {
        fill: url(#Gradiente_sem_nome_13);
      }

      .st11 {
        fill: url(#Gradiente_sem_nome_14);
      }

      .st12 {
        fill: url(#Gradiente_sem_nome_11);
      }

      .st13 {
        fill: url(#Gradiente_sem_nome_10);
      }

      .st14 {
        fill: url(#Gradiente_sem_nome);
      }

      .st15 {
        fill: url(#Gradiente_sem_nome_4);
      }

      .st16 {
        fill: url(#Gradiente_sem_nome_2);
      }

      .st17 {
        fill: url(#Gradiente_sem_nome_8);
      }

      .st18 {
        fill: url(#Gradiente_sem_nome_6);
      }

      .st19 {
        fill: url(#Gradiente_sem_nome_7);
      }

      .st20 {
        fill: url(#Gradiente_sem_nome_5);
      }

      .st21 {
        fill: url(#Gradiente_sem_nome_3);
      }

      .st22 {
        fill: url(#Gradiente_sem_nome_9);
      }

      .st23 {
        fill: url(#Gradiente_sem_nome_826);
      }

      .st24 {
        fill: url(#Gradiente_sem_nome_824);
      }

      .st25 {
        fill: url(#Gradiente_sem_nome_829);
      }

      .st26 {
        fill: url(#Gradiente_sem_nome_823);
      }

      .st27 {
        fill: url(#Gradiente_sem_nome_825);
      }

      .st28 {
        fill: url(#Gradiente_sem_nome_830);
      }

      .st29 {
        fill: url(#Gradiente_sem_nome_831);
      }

      .st30 {
        fill: url(#Gradiente_sem_nome_832);
      }

      .st31 {
        fill: url(#Gradiente_sem_nome_811);
      }

      .st32 {
        fill: url(#Gradiente_sem_nome_812);
      }

      .st33 {
        fill: url(#Gradiente_sem_nome_810);
      }

      .st34 {
        fill: url(#Gradiente_sem_nome_818);
      }

      .st35 {
        fill: url(#Gradiente_sem_nome_817);
      }

      .st36 {
        fill: url(#Gradiente_sem_nome_815);
      }

      .st37 {
        fill: url(#Gradiente_sem_nome_813);
      }

      .st38 {
        fill: url(#Gradiente_sem_nome_816);
      }

      .st39 {
        fill: url(#Gradiente_sem_nome_819);
      }

      .st40 {
        fill: url(#Gradiente_sem_nome_814);
      }

      .st41 {
        fill: url(#Gradiente_sem_nome_828);
      }

      .st42 {
        fill: url(#Gradiente_sem_nome_827);
      }

      .st43 {
        fill: url(#Gradiente_sem_nome_821);
      }

      .st44 {
        fill: url(#Gradiente_sem_nome_822);
      }

      .st45 {
        fill: url(#Gradiente_sem_nome_820);
      }
    </style>
    <linearGradient id="Gradiente_sem_nome" data-name="Gradiente sem nome" x1="194.5" y1="256.7" x2="484" y2="256.7" gradientTransform="translate(0 520) scale(1 -1)" gradientUnits="userSpaceOnUse">
      <stop offset="0" stop-color="#2d9b03"/>
      <stop offset="1" stop-color="#36b515"/>
    </linearGradient>
    <linearGradient id="Gradiente_sem_nome_2" data-name="Gradiente sem nome 2" x1="0" y1="387.1" x2="175.2" y2="387.1" gradientTransform="translate(0 520) scale(1 -1)" gradientUnits="userSpaceOnUse">
      <stop offset="0" stop-color="#36b515"/>
      <stop offset="1" stop-color="#2d9b03"/>
    </linearGradient>
    <linearGradient id="Gradiente_sem_nome_3" data-name="Gradiente sem nome 3" x1="298.9" y1="100.5" x2="494.5" y2="100.5" gradientTransform="translate(0 520) scale(1 -1)" gradientUnits="userSpaceOnUse">
      <stop offset="0" stop-color="#f5ca1a"/>
      <stop offset="1" stop-color="#f4b80d"/>
    </linearGradient>
    <linearGradient id="Gradiente_sem_nome_4" data-name="Gradiente sem nome 4" x1=".3" y1="128.9" x2="219.9" y2="128.9" gradientTransform="translate(0 520) scale(1 -1)" gradientUnits="userSpaceOnUse">
      <stop offset="0" stop-color="#4375e5"/>
      <stop offset=".5" stop-color="#3e60de"/>
      <stop offset="1" stop-color="#3c53da"/>
    </linearGradient>
    <linearGradient id="Gradiente_sem_nome_5" data-name="Gradiente sem nome 5" x1=".4" y1="47" x2="210.4" y2="47" gradientTransform="translate(0 520) scale(1 -1)" gradientUnits="userSpaceOnUse">
      <stop offset="0" stop-color="#4375e5"/>
      <stop offset=".5" stop-color="#3e60de"/>
      <stop offset="1" stop-color="#3c53da"/>
    </linearGradient>
    <linearGradient id="Gradiente_sem_nome_6" data-name="Gradiente sem nome 6" x1=".5" y1="211.2" x2="174.9" y2="211.2" gradientTransform="translate(0 520) scale(1 -1)" gradientUnits="userSpaceOnUse">
      <stop offset="0" stop-color="#4375e5"/>
      <stop offset=".5" stop-color="#3e60de"/>
      <stop offset="1" stop-color="#3c53da"/>
    </linearGradient>
    <linearGradient id="Gradiente_sem_nome_7" data-name="Gradiente sem nome 7" x1=".5" y1="273.3" x2="138.4" y2="273.3" gradientTransform="translate(0 520) scale(1 -1)" gradientUnits="userSpaceOnUse">
      <stop offset="0" stop-color="#4375e5"/>
      <stop offset=".5" stop-color="#3e60de"/>
      <stop offset="1" stop-color="#3c53da"/>
    </linearGradient>
    <linearGradient id="Gradiente_sem_nome_8" data-name="Gradiente sem nome 8" x1="540.3" y1="298.2" x2="666.3" y2="298.2" gradientTransform="translate(0 520) scale(1 -1)" gradientUnits="userSpaceOnUse">
      <stop offset="0" stop-color="#2d9b03"/>
      <stop offset="1" stop-color="#36b515"/>
    </linearGradient>
    <linearGradient id="Gradiente_sem_nome_9" data-name="Gradiente sem nome 9" x1="698.4" y1="298.2" x2="733.4" y2="298.2" gradientTransform="translate(0 520) scale(1 -1)" gradientUnits="userSpaceOnUse">
      <stop offset="0" stop-color="#2d9b03"/>
      <stop offset="1" stop-color="#36b515"/>
    </linearGradient>
    <linearGradient id="Gradiente_sem_nome_10" data-name="Gradiente sem nome 10" x1="773.2" y1="298.2" x2="914.8" y2="298.2" gradientTransform="translate(0 520) scale(1 -1)" gradientUnits="userSpaceOnUse">
      <stop offset="0" stop-color="#2d9b03"/>
      <stop offset="1" stop-color="#36b515"/>
    </linearGradient>
    <linearGradient id="Gradiente_sem_nome_11" data-name="Gradiente sem nome 11" x1="953" y1="298.2" x2="1079" y2="298.2" gradientTransform="translate(0 520) scale(1 -1)" gradientUnits="userSpaceOnUse">
      <stop offset="0" stop-color="#2d9b03"/>
      <stop offset="1" stop-color="#36b515"/>
    </linearGradient>
    <linearGradient id="Gradiente_sem_nome_12" data-name="Gradiente sem nome 12" x1="1105" y1="298.2" x2="1242.6" y2="298.2" gradientTransform="translate(0 520) scale(1 -1)" gradientUnits="userSpaceOnUse">
      <stop offset="0" stop-color="#2d9b03"/>
      <stop offset="1" stop-color="#36b515"/>
    </linearGradient>
    <linearGradient id="Gradiente_sem_nome_13" data-name="Gradiente sem nome 13" x1="1269.5" y1="298.2" x2="1390.7" y2="298.2" gradientTransform="translate(0 520) scale(1 -1)" gradientUnits="userSpaceOnUse">
      <stop offset="0" stop-color="#2d9b03"/>
      <stop offset="1" stop-color="#36b515"/>
    </linearGradient>
    <linearGradient id="Gradiente_sem_nome_14" data-name="Gradiente sem nome 14" x1="1411" y1="298.2" x2="1537" y2="298.2" gradientTransform="translate(0 520) scale(1 -1)" gradientUnits="userSpaceOnUse">
      <stop offset="0" stop-color="#2d9b03"/>
      <stop offset="1" stop-color="#36b515"/>
    </linearGradient>
    <linearGradient id="Gradiente_sem_nome_81" data-name="Gradiente sem nome 8" x1="540.2" y1="347.7" x2="569.5" y2="347.7" gradientTransform="matrix(1,0,0,1,0,0)" xlink:href="#Gradiente_sem_nome_8"/>
    <linearGradient id="Gradiente_sem_nome_82" data-name="Gradiente sem nome 8" x1="576.6" y1="347.1" x2="583.7" y2="347.1" gradientTransform="matrix(1,0,0,1,0,0)" xlink:href="#Gradiente_sem_nome_8"/>
    <linearGradient id="Gradiente_sem_nome_83" data-name="Gradiente sem nome 8" x1="589.6" y1="352.4" x2="612.3" y2="352.4" gradientTransform="matrix(1,0,0,1,0,0)" xlink:href="#Gradiente_sem_nome_8"/>
    <linearGradient id="Gradiente_sem_nome_84" data-name="Gradiente sem nome 8" x1="616.2" y1="348.7" x2="634" y2="348.7" gradientTransform="matrix(1,0,0,1,0,0)" xlink:href="#Gradiente_sem_nome_8"/>
    <linearGradient id="Gradiente_sem_nome_85" data-name="Gradiente sem nome 8" x1="638.2" y1="352.4" x2="665.8" y2="352.4" gradientTransform="matrix(1,0,0,1,0,0)" xlink:href="#Gradiente_sem_nome_8"/>
    <linearGradient id="Gradiente_sem_nome_86" data-name="Gradiente sem nome 8" x1="672.3" y1="352" x2="715.7" y2="352" gradientTransform="matrix(1,0,0,1,0,0)" xlink:href="#Gradiente_sem_nome_8"/>
    <linearGradient id="Gradiente_sem_nome_87" data-name="Gradiente sem nome 8" x1="721.6" y1="352.4" x2="747.4" y2="352.4" gradientTransform="matrix(1,0,0,1,0,0)" xlink:href="#Gradiente_sem_nome_8"/>
    <linearGradient id="Gradiente_sem_nome_88" data-name="Gradiente sem nome 8" x1="772.2" y1="347.7" x2="805.1" y2="347.7" gradientTransform="matrix(1,0,0,1,0,0)" xlink:href="#Gradiente_sem_nome_8"/>
    <linearGradient id="Gradiente_sem_nome_89" data-name="Gradiente sem nome 8" x1="812.1" y1="352.4" x2="837.8" y2="352.4" gradientTransform="matrix(1,0,0,1,0,0)" xlink:href="#Gradiente_sem_nome_8"/>
    <linearGradient id="Gradiente_sem_nome_810" data-name="Gradiente sem nome 8" x1="844.1" y1="352.4" x2="870.5" y2="352.4" gradientTransform="matrix(1,0,0,1,0,0)" xlink:href="#Gradiente_sem_nome_8"/>
    <linearGradient id="Gradiente_sem_nome_811" data-name="Gradiente sem nome 8" x1="876.6" y1="347.1" x2="883.6" y2="347.1" gradientTransform="matrix(1,0,0,1,0,0)" xlink:href="#Gradiente_sem_nome_8"/>
    <linearGradient id="Gradiente_sem_nome_812" data-name="Gradiente sem nome 8" x1="890.3" y1="352.4" x2="920.7" y2="352.4" gradientTransform="matrix(1,0,0,1,0,0)" xlink:href="#Gradiente_sem_nome_8"/>
    <linearGradient id="Gradiente_sem_nome_813" data-name="Gradiente sem nome 8" x1="927.3" y1="352" x2="952.9" y2="352" gradientTransform="matrix(1,0,0,1,0,0)" xlink:href="#Gradiente_sem_nome_8"/>
    <linearGradient id="Gradiente_sem_nome_814" data-name="Gradiente sem nome 8" x1="958.8" y1="352.4" x2="984.6" y2="352.4" gradientTransform="matrix(1,0,0,1,0,0)" xlink:href="#Gradiente_sem_nome_8"/>
    <linearGradient id="Gradiente_sem_nome_815" data-name="Gradiente sem nome 8" x1="992.7" y1="346.9" x2="999.3" y2="346.9" gradientTransform="matrix(1,0,0,1,0,0)" xlink:href="#Gradiente_sem_nome_8"/>
    <linearGradient id="Gradiente_sem_nome_816" data-name="Gradiente sem nome 8" x1="1022.6" y1="347.2" x2="1052" y2="347.2" gradientTransform="matrix(1,0,0,1,0,0)" xlink:href="#Gradiente_sem_nome_8"/>
    <linearGradient id="Gradiente_sem_nome_817" data-name="Gradiente sem nome 8" x1="1058.6" y1="352.4" x2="1086.2" y2="352.4" gradientTransform="matrix(1,0,0,1,0,0)" xlink:href="#Gradiente_sem_nome_8"/>
    <linearGradient id="Gradiente_sem_nome_818" data-name="Gradiente sem nome 8" x1="1109.7" y1="347.7" x2="1139" y2="347.7" gradientTransform="matrix(1,0,0,1,0,0)" xlink:href="#Gradiente_sem_nome_8"/>
    <linearGradient id="Gradiente_sem_nome_819" data-name="Gradiente sem nome 8" x1="1144.9" y1="352.1" x2="1161.6" y2="352.1" gradientTransform="matrix(1,0,0,1,0,0)" xlink:href="#Gradiente_sem_nome_8"/>
    <linearGradient id="Gradiente_sem_nome_820" data-name="Gradiente sem nome 8" x1="1164.7" y1="352.4" x2="1192.3" y2="352.4" gradientTransform="matrix(1,0,0,1,0,0)" xlink:href="#Gradiente_sem_nome_8"/>
    <linearGradient id="Gradiente_sem_nome_821" data-name="Gradiente sem nome 8" x1="1197.3" y1="356.5" x2="1223.7" y2="356.5" gradientTransform="matrix(1,0,0,1,0,0)" xlink:href="#Gradiente_sem_nome_8"/>
    <linearGradient id="Gradiente_sem_nome_822" data-name="Gradiente sem nome 8" x1="1227.3" y1="352.4" x2="1257.7" y2="352.4" gradientTransform="matrix(1,0,0,1,0,0)" xlink:href="#Gradiente_sem_nome_8"/>
    <linearGradient id="Gradiente_sem_nome_823" data-name="Gradiente sem nome 8" x1="1262" y1="352.4" x2="1284.6" y2="352.4" gradientTransform="matrix(1,0,0,1,0,0)" xlink:href="#Gradiente_sem_nome_8"/>
    <linearGradient id="Gradiente_sem_nome_824" data-name="Gradiente sem nome 8" x1="1305.7" y1="347.7" x2="1334.9" y2="347.7" gradientTransform="matrix(1,0,0,1,0,0)" xlink:href="#Gradiente_sem_nome_8"/>
    <linearGradient id="Gradiente_sem_nome_825" data-name="Gradiente sem nome 8" x1="1340.4" y1="352.4" x2="1368" y2="352.4" gradientTransform="matrix(1,0,0,1,0,0)" xlink:href="#Gradiente_sem_nome_8"/>
    <linearGradient id="Gradiente_sem_nome_826" data-name="Gradiente sem nome 8" x1="1372.3" y1="348.7" x2="1390.1" y2="348.7" gradientTransform="matrix(1,0,0,1,0,0)" xlink:href="#Gradiente_sem_nome_8"/>
    <linearGradient id="Gradiente_sem_nome_827" data-name="Gradiente sem nome 8" x1="1394.4" y1="352.4" x2="1424.8" y2="352.4" gradientTransform="matrix(1,0,0,1,0,0)" xlink:href="#Gradiente_sem_nome_8"/>
    <linearGradient id="Gradiente_sem_nome_828" data-name="Gradiente sem nome 8" x1="1431.3" y1="352.1" x2="1448" y2="352.1" gradientTransform="matrix(1,0,0,1,0,0)" xlink:href="#Gradiente_sem_nome_8"/>
    <linearGradient id="Gradiente_sem_nome_829" data-name="Gradiente sem nome 8" x1="1453.8" y1="347.1" x2="1460.8" y2="347.1" gradientTransform="matrix(1,0,0,1,0,0)" xlink:href="#Gradiente_sem_nome_8"/>
    <linearGradient id="Gradiente_sem_nome_830" data-name="Gradiente sem nome 8" x1="1467.1" y1="352.4" x2="1492.9" y2="352.4" gradientTransform="matrix(1,0,0,1,0,0)" xlink:href="#Gradiente_sem_nome_8"/>
    <linearGradient id="Gradiente_sem_nome_831" data-name="Gradiente sem nome 8" x1="1500.8" y1="347.1" x2="1507.8" y2="347.1" gradientTransform="matrix(1,0,0,1,0,0)" xlink:href="#Gradiente_sem_nome_8"/>
    <linearGradient id="Gradiente_sem_nome_832" data-name="Gradiente sem nome 8" x1="1513.8" y1="352.4" x2="1536.5" y2="352.4" gradientTransform="matrix(1,0,0,1,0,0)" xlink:href="#Gradiente_sem_nome_8"/>
  </defs>
  <g id="Camada_1-2">
    <g id="_4Uitj5">
      <g>
        <path class="st14" d="M319.5,302.6c-19.8.2-32.6,17.2-33.6,35.5l-3.9,73c-1.1,20.1,13.2,28,26.2,42.1l-47.4,61.1c-2.4,3.1-5.7,1.5-7.8-.2-15.7-12.5-29.6-25.5-46.4-36.7-4.9-3.3-14.4-10.2-8.3-16.7l35.9-38.3c4.9-5.3,5.2-32,.1-35.5l-34.4-23.8c-4-2.7-5.6-5.5-5.6-10.5v-108.8c0,0,0-196.9,0-196.9,12.2-3.9,22.8-9.8,34.6-10.3l23.3-1,15.6-21.4c1.6-2.1,3.7-3.7,5.9-3.6,2.5.2,5.1,2.2,6.4,4.9l12.5,27.3c3,6.7,4.1,13.5,6.4,21.2,25.9,11.1,50.6,24,77.3,33.3,12.7,4.4,36,1.9,48.2,10.7,9.4,6.8,18,14.3,27.9,20.6s24.2,2.5,26.2,13.3c2.1,11,4.3,21.9,5.2,33.4.5,6.3-3.1,11.7-6.8,16.3l-24.1,29.5c-5.7,7-14.8,14-17.6,22.8l-11.6,73.7c-10.9-8.6-16.2-15.7-30.6-15.5l-73.7.8h0Z"/>
        <path class="st16" d="M.9,185.1c-2-14.7,0-28.7-.9-43-.2-4.2,2.4-7.1,5.9-8.8,12-5.9,24.3-9.9,36-16.5V50.8c0-3,1.2-5.3,4.1-5.9,10.9-2.4,22-2,32.7-2,4.3,5.5,6.8,10.6,11.5,15.3l30.1-13.6c.8-4.7-14.8-23.9-7.2-26.5L164.7.2c2.7-.9,5.9,1,7.3,2.2,2,1.7,3.1,4.7,3.1,8.5v254.8c-.1,0-62.5-31.4-62.5-31.4-5.2-2.6-8.2-7.3-8.8-13.1l-1.4-18.8c-.1-1.4-.6-2.6-1.2-3.2-1.1-.9-2.8-.7-4.4,0l-25,10.7c-8.4,3.6-20.1,4-28.9,1.1-4.9-1.6-37.1-20.3-42.1-25.9h0Z"/>
        <path class="st21" d="M488.3,410.5l-58.4-58.7c-8.5-8.5-22.4-24-32.6-29.6h-71.1c-6.1,0-13.2-1.4-15.4,4.2-4.9,12.2-11.6,76.9-11.6,76.9-1.4,13.6,2.7,17.8,10,25,0,0,66.4,70.5,92.9,88.6,0,0,2.9,2.1,13-5.8l46.6-45c2.9-2.8,4.6-4.7,6.9-7l20.3-20.8c7.7-7.9,7.2-19.8-.6-27.7h0ZM346.9,378.4c-8.1,0-14.7-6.6-14.7-14.7s6.6-14.7,14.7-14.7,14.7,6.6,14.7,14.7-6.6,14.7-14.7,14.7Z"/>
        <g>
          <path class="st15" d="M216.3,397.3c7.3,5.9,1.9,15.3-2.8,19.7-6.1,5.9-11.3,8.1-19.7,9.7-45.6,8.9-92.3,9.6-138.5,2.6-12-1.8-53.3-9.9-54.3-24-1.4-19.4-.4-37.5-.4-57.3,27,17.9,76,21,108.3,22.3,23.1.9,45.3-1.4,68.3-4.3,6.2,11.6,26.4,21,39,31.2h0Z"/>
          <path class="st20" d="M135.9,516.3c-13.3,1.1-53.7-.7-60.7-1.6-21-2.5-51.7-6.9-68.8-18.6-4.5-3.2-6-7.9-6-13.4v-53.3c11.5,7.7,23.4,11.9,37.1,14.8,48.4,10.3,97.1,10.3,147.6,2.5-10.8,11.1-11.6,27.2.1,36.7l25.1,20.3c-18,6.3-35.2,9.3-53.6,10.8l-20.9,1.8h0Z"/>
          <path class="st18" d="M48.1,346.5S.7,337.9,1,323.8l-.5-58.4c11.7,9.1,23.8,12.1,37.3,15.5,45.1,8.9,90.5,9.4,137,3.9v63.3c-43.1,6.1-84.9,5.2-126.8-1.6h0Z"/>
          <path class="st19" d="M85,225.6c4.2,26.2,34.8,30.3,53.5,44.4-28.8,1-55.7,0-83-4.1-12.6-1.9-50.5-9.5-54.5-21.9-3.5-10.7,14.1-18.9,23.4-20.8,12.7,12.3,44.8,10.1,60.5,2.5h0Z"/>
        </g>
      </g>
    </g>
    <g>
      <path class="st17" d="M540.3,278.2l20.7-24.8c14.3,11.8,29.3,19.3,47.5,19.3s23-5.7,23-15v-.5c0-8.9-5.5-13.4-32.1-20.2-32.1-8.2-52.8-17.1-52.8-48.7v-.5c0-28.9,23.2-48,55.7-48s43,7.3,59.2,20.2l-18.2,26.4c-14.1-9.8-28-15.7-41.4-15.7s-20.5,6.1-20.5,13.9v.4c0,10.5,6.8,13.9,34.4,20.9,32.3,8.4,50.5,20,50.5,47.8v.5c0,31.6-24.1,49.4-58.5,49.4s-48.5-8.4-67.6-25.5h0Z"/>
      <path class="st22" d="M698.4,142.2h35v159.3h-35v-159.3h0Z"/>
      <path class="st13" d="M773.2,142.2h32.3l74.6,98.1v-98.1h34.6v159.3h-29.8l-77.1-101.2v101.2h-34.6v-159.3h0Z"/>
      <path class="st12" d="M953,142.2h65.1c38,0,61,22.5,61,55.1v.4c0,36.9-28.7,56-64.4,56h-26.6v47.8h-35v-159.3h0ZM1015.8,222.5c17.5,0,27.8-10.5,27.8-24.1v-.4c0-15.7-10.9-24.1-28.4-24.1h-27.1v48.7h27.8Z"/>
      <path class="st9" d="M1105,142.2h72.8c20.2,0,35.9,5.7,46.4,16.1,8.9,8.9,13.7,21.4,13.7,36.4v.4c0,25.7-13.9,41.9-34.1,49.4l38.9,56.9h-40.9l-34.1-51h-27.5v51h-35v-159.3h0ZM1175.5,219.5c17.1,0,26.8-9.1,26.8-22.5v-.4c0-15-10.5-22.8-27.5-22.8h-34.8v45.7h35.5Z"/>
      <path class="st10" d="M1269.5,142.2h120.1v31.2h-85.3v32.3h75.1v31.2h-75.1v33.5h86.5v31.2h-121.3v-159.3h0Z"/>
      <path class="st11" d="M1411,278.2l20.7-24.8c14.3,11.8,29.3,19.3,47.6,19.3s23-5.7,23-15v-.5c0-8.9-5.5-13.4-32.1-20.2-32.1-8.2-52.8-17.1-52.8-48.7v-.5c0-28.9,23.2-48,55.7-48s43,7.3,59.2,20.2l-18.2,26.4c-14.1-9.8-28-15.7-41.4-15.7s-20.5,6.1-20.5,13.9v.4c0,10.5,6.8,13.9,34.4,20.9,32.3,8.4,50.5,20,50.5,47.8v.5c0,31.6-24.1,49.4-58.5,49.4s-48.5-8.4-67.6-25.5h0Z"/>
    </g>
    <g>
      <path class="st2" d="M540.2,361.1l4-4.7c3.6,3.1,7.3,4.9,11.9,4.9s6.7-1.9,6.7-4.7h0c0-2.8-1.5-4.3-8.5-5.9-8-1.9-12.6-4.3-12.6-11.3h0c0-6.6,5.4-11,12.9-11s9.9,1.7,13.7,4.7l-3.6,5c-3.4-2.5-6.8-3.9-10.2-3.9s-6.2,2-6.2,4.5h0c0,3,1.7,4.3,9,6,8,1.9,12.1,4.8,12.1,11h0c0,7.2-5.6,11.4-13.5,11.4s-11.2-2-15.8-6h0Z"/>
      <path class="st8" d="M576.6,327.5h7v6.2h-7v-6.2ZM576.9,338.1h6.6v28.5h-6.6v-28.5Z"/>
      <path class="st7" d="M589.6,362.9l2.9-4.4c3.1,2.3,6.4,3.5,9.3,3.5s4.4-1.2,4.4-3.1h0c0-2.3-3-3.1-6.4-4.1-4.2-1.2-8.9-2.9-8.9-8.3h0c0-5.6,4.5-8.8,10.1-8.8s7.4,1.2,10.5,3.2l-2.6,4.6c-2.8-1.7-5.7-2.7-8-2.7s-4,1.2-4,2.8h0c0,2.2,3.1,3.1,6.4,4.1,4.2,1.3,8.8,3.2,8.8,8.3h0c0,6.1-4.6,9.1-10.6,9.1s-8.5-1.4-12.1-4.3h0Z"/>
      <path class="st4" d="M619.8,358.7v-15h-3.6v-5.6h3.6v-7.8h6.5v7.8h7.7v5.6h-7.7v14c0,2.5,1.3,3.6,3.5,3.6s2.8-.3,4-1v5.3c-1.6.9-3.4,1.5-5.9,1.5-4.8,0-8.2-2.1-8.2-8.4h0Z"/>
      <path class="st6" d="M638.2,352.4h0c0-8.2,5.8-14.9,13.9-14.9s13.7,7.1,13.7,15.3,0,1.2-.1,1.8h-20.9c.7,4.6,4,7.2,8.2,7.2s5.5-1.2,7.7-3.4l3.8,3.4c-2.7,3.2-6.4,5.3-11.7,5.3-8.2,0-14.6-6-14.6-14.8h0ZM659.3,350.3c-.4-4.2-2.9-7.5-7.2-7.5s-6.8,3.1-7.4,7.5h14.6Z"/>
      <path class="st5" d="M672.3,338.1h6.6v4.3c1.8-2.5,4.3-4.9,8.7-4.9s7,2,8.5,5c2.3-3,5.3-5,9.6-5,6.2,0,10,3.9,10,10.9v18.2h-6.5v-16.2c0-4.5-2.1-7-5.8-7s-6.1,2.5-6.1,7.1v16.1h-6.5v-16.2c0-4.4-2.2-6.9-5.8-6.9s-6.1,2.7-6.1,7.1v16.1h-6.6v-28.5h0Z"/>
      <path class="st1" d="M721.6,358.4h0c0-6.3,4.9-9.3,11.8-9.3s5.5.5,7.7,1.2v-.7c0-4-2.5-6.2-7.1-6.2s-5.6.7-8.1,1.8l-1.8-5.1c3.2-1.4,6.3-2.3,10.8-2.3s7.4,1.1,9.4,3.2c2.1,2,3.1,5.1,3.1,8.8v16.9h-6.4v-3.6c-1.9,2.3-4.9,4.1-9.3,4.1s-10.1-3.1-10.1-8.8h0ZM741.2,356.3v-1.9c-1.7-.6-3.9-1.1-6.5-1.1-4.2,0-6.7,1.8-6.7,4.7h0c0,2.9,2.4,4.4,5.6,4.4s7.6-2.5,7.6-6.1h0Z"/>
      <path class="st3" d="M772.2,328.8h6.2l20.2,26.1v-26.1h6.5v37.7h-5.6l-20.8-26.9v26.9h-6.5v-37.7Z"/>
      <path class="st0" d="M812.1,358.4h0c0-6.3,4.9-9.3,11.8-9.3s5.5.5,7.7,1.2v-.7c0-4-2.5-6.2-7.1-6.2s-5.6.7-8.1,1.8l-1.8-5.1c3.2-1.4,6.3-2.3,10.8-2.3s7.4,1.1,9.4,3.2c2.1,2,3.1,5.1,3.1,8.8v16.9h-6.4v-3.6c-1.9,2.3-4.9,4.1-9.3,4.1s-10.1-3.1-10.1-8.8h0ZM831.6,356.3v-1.9c-1.7-.6-3.9-1.1-6.5-1.1-4.2,0-6.7,1.8-6.7,4.7h0c0,2.9,2.4,4.4,5.6,4.4s7.6-2.5,7.6-6.1h0Z"/>
      <path class="st33" d="M844.1,352.5h0c0-8.2,6.3-15,14.8-15s8.7,2,11.4,4.9l-4.1,4.4c-2-2-4.1-3.6-7.3-3.6-4.8,0-8.2,4.1-8.2,9.1h0c0,5.2,3.5,9.2,8.5,9.2s5.3-1.4,7.4-3.5l3.9,3.9c-2.8,3.1-6.1,5.3-11.7,5.3-8.5,0-14.7-6.6-14.7-14.7h0Z"/>
      <path class="st31" d="M876.6,327.5h7v6.2h-7v-6.2ZM876.8,338.1h6.6v28.5h-6.6v-28.5Z"/>
      <path class="st32" d="M890.3,352.5h0c0-8.2,6.5-15,15.2-15s15.2,6.6,15.2,14.8h0c0,8.2-6.5,14.9-15.3,14.9s-15.1-6.6-15.1-14.7h0ZM914.2,352.5h0c0-5.1-3.6-9.3-8.7-9.3s-8.6,4.1-8.6,9.1h0c0,5.1,3.6,9.2,8.7,9.2s8.6-4.1,8.6-9h0Z"/>
      <path class="st37" d="M927.3,338.1h6.6v4.4c1.8-2.6,4.5-5,8.9-5,6.4,0,10.1,4.3,10.1,10.9v18.2h-6.5v-16.2c0-4.4-2.2-7-6.1-7s-6.4,2.6-6.4,7.1v16.1h-6.6v-28.5h0Z"/>
      <path class="st40" d="M958.8,358.4h0c0-6.3,4.9-9.3,11.8-9.3s5.5.5,7.7,1.2v-.7c0-4-2.5-6.2-7.1-6.2s-5.6.7-8.1,1.8l-1.8-5.1c3.2-1.4,6.3-2.3,10.8-2.3s7.4,1.1,9.4,3.2c2.1,2,3.1,5.1,3.1,8.8v16.9h-6.4v-3.6c-1.9,2.3-4.9,4.1-9.3,4.1s-10.1-3.1-10.1-8.8h0ZM978.4,356.3v-1.9c-1.7-.6-3.9-1.1-6.5-1.1-4.2,0-6.7,1.8-6.7,4.7h0c0,2.9,2.4,4.4,5.6,4.4s7.6-2.5,7.6-6.1h0Z"/>
      <path class="st36" d="M992.7,327.2h6.6v39.4h-6.6v-39.4h0Z"/>
      <path class="st38" d="M1022.6,352.4h0c0-9.5,6.4-14.9,13.2-14.9s7.7,2.3,9.7,5v-15.3h6.5v39.4h-6.5v-4.7c-2.1,3-5.1,5.3-9.7,5.3-6.7,0-13.2-5.3-13.2-14.8h0ZM1045.6,352.4h0c0-5.6-3.9-9.2-8.2-9.2s-8.2,3.5-8.2,9.1h0c0,5.6,3.8,9.2,8.2,9.2s8.2-3.7,8.2-9.1Z"/>
      <path class="st35" d="M1058.7,352.4h0c0-8.2,5.8-14.9,13.9-14.9s13.7,7.1,13.7,15.3,0,1.2-.1,1.8h-20.9c.7,4.6,4,7.2,8.2,7.2s5.4-1.2,7.7-3.4l3.8,3.4c-2.7,3.2-6.4,5.3-11.7,5.3-8.2,0-14.6-6-14.6-14.8h0ZM1079.7,350.3c-.4-4.2-2.9-7.5-7.2-7.5s-6.8,3.1-7.4,7.5h14.6Z"/>
      <path class="st34" d="M1109.7,328.8h14.9c8.8,0,14.3,5,14.3,12.6h0c0,8.6-6.8,13-15.1,13h-7.5v12.1h-6.6v-37.7h0ZM1124.1,348.5c5,0,8.1-2.8,8.1-6.7h0c0-4.5-3.2-6.8-8.1-6.8h-7.7v13.6h7.7Z"/>
      <path class="st39" d="M1144.9,338.1h6.6v6.4c1.8-4.3,5.1-7.2,10.1-7v6.9h-.4c-5.7,0-9.7,3.7-9.7,11.3v10.8h-6.6v-28.5Z"/>
      <path class="st45" d="M1164.7,352.4h0c0-8.2,5.8-14.9,13.9-14.9s13.7,7.1,13.7,15.3,0,1.2-.1,1.8h-20.9c.7,4.6,4,7.2,8.2,7.2s5.4-1.2,7.7-3.4l3.8,3.4c-2.7,3.2-6.4,5.3-11.7,5.3-8.2,0-14.6-6-14.6-14.8h0ZM1185.8,350.3c-.4-4.2-2.9-7.5-7.2-7.5s-6.8,3.1-7.4,7.5h14.6Z"/>
      <path class="st43" d="M1203.9,373.1l4.3-6.4c-6.5-1.6-10.9-7.4-10.9-14.2h0c0-8.2,6.3-15,14.8-15s8.7,2,11.4,4.9l-4.1,4.4c-2-2-4.1-3.6-7.3-3.6-4.8,0-8.2,4.1-8.2,9.1h0c0,5.2,3.5,9.2,8.5,9.2s5.3-1.4,7.4-3.5l3.9,3.9c-2.6,2.9-5.6,5-10.5,5.3l-3.6,8.4-5.7-2.4h0Z"/>
      <path class="st44" d="M1227.3,352.5h0c0-8.2,6.5-15,15.2-15s15.2,6.6,15.2,14.8h0c0,8.2-6.5,14.9-15.3,14.9s-15.1-6.6-15.1-14.7h0ZM1251.1,352.5h0c0-5.1-3.6-9.3-8.7-9.3s-8.6,4.1-8.6,9.1h0c0,5.1,3.6,9.2,8.7,9.2s8.6-4.1,8.6-9h0Z"/>
      <path class="st26" d="M1262,362.9l2.9-4.4c3.1,2.3,6.4,3.5,9.3,3.5s4.4-1.2,4.4-3.1h0c0-2.3-3-3.1-6.4-4.1-4.2-1.2-8.9-2.9-8.9-8.3h0c0-5.6,4.5-8.8,10.1-8.8s7.4,1.2,10.5,3.2l-2.6,4.6c-2.8-1.7-5.7-2.7-8-2.7s-4,1.2-4,2.8h0c0,2.2,3.1,3.1,6.4,4.1,4.2,1.3,8.8,3.2,8.8,8.3h0c0,6.1-4.6,9.1-10.6,9.1s-8.5-1.4-12.1-4.3h0Z"/>
      <path class="st24" d="M1305.7,361.1l4-4.7c3.6,3.1,7.3,4.9,11.9,4.9s6.7-1.9,6.7-4.7h0c0-2.8-1.5-4.3-8.5-5.9-8-1.9-12.6-4.3-12.6-11.3h0c0-6.6,5.4-11,12.9-11s9.9,1.7,13.7,4.7l-3.6,5c-3.4-2.5-6.8-3.9-10.2-3.9s-6.2,2-6.2,4.5h0c0,3,1.7,4.3,9,6,8,1.9,12.1,4.8,12.1,11h0c0,7.2-5.6,11.4-13.5,11.4s-11.2-2-15.8-6h0Z"/>
      <path class="st27" d="M1340.4,352.4h0c0-8.2,5.8-14.9,13.9-14.9s13.7,7.1,13.7,15.3,0,1.2-.1,1.8h-20.9c.7,4.6,4,7.2,8.2,7.2s5.4-1.2,7.7-3.4l3.8,3.4c-2.7,3.2-6.4,5.3-11.7,5.3-8.2,0-14.6-6-14.6-14.8h0ZM1361.5,350.3c-.4-4.2-2.9-7.5-7.2-7.5s-6.8,3.1-7.4,7.5h14.6Z"/>
      <path class="st23" d="M1375.9,358.7v-15h-3.6v-5.6h3.6v-7.8h6.5v7.8h7.7v5.6h-7.7v14c0,2.5,1.3,3.6,3.5,3.6s2.8-.3,4-1v5.3c-1.6.9-3.4,1.5-5.9,1.5-4.8,0-8.2-2.1-8.2-8.4h0Z"/>
      <path class="st42" d="M1394.4,352.5h0c0-8.2,6.5-15,15.2-15s15.2,6.6,15.2,14.8h0c0,8.2-6.5,14.9-15.3,14.9s-15.1-6.6-15.1-14.7h0ZM1418.2,352.5h0c0-5.1-3.6-9.3-8.7-9.3s-8.6,4.1-8.6,9.1h0c0,5.1,3.6,9.2,8.7,9.2s8.6-4.1,8.6-9h0Z"/>
      <path class="st41" d="M1431.3,338.1h6.6v6.4c1.8-4.3,5.1-7.2,10.1-7v6.9h-.4c-5.7,0-9.7,3.7-9.7,11.3v10.8h-6.6v-28.5Z"/>
      <path class="st25" d="M1453.8,327.5h7v6.2h-7v-6.2ZM1454,338.1h6.6v28.5h-6.6v-28.5Z"/>
      <path class="st28" d="M1467.1,358.4h0c0-6.3,4.8-9.3,11.8-9.3s5.4.5,7.7,1.2v-.7c0-4-2.5-6.2-7.1-6.2s-5.6.7-8.1,1.8l-1.8-5.1c3.2-1.4,6.3-2.3,10.8-2.3s7.4,1.1,9.4,3.2c2.1,2,3.1,5.1,3.1,8.8v16.9h-6.4v-3.6c-1.9,2.3-4.9,4.1-9.3,4.1s-10.1-3.1-10.1-8.8h0ZM1486.7,356.3v-1.9c-1.7-.6-3.9-1.1-6.5-1.1-4.2,0-6.7,1.8-6.7,4.7h0c0,2.9,2.4,4.4,5.6,4.4s7.6-2.5,7.6-6.1h0Z"/>
      <path class="st29" d="M1500.8,327.5h7v6.2h-7v-6.2ZM1501.1,338.1h6.6v28.5h-6.6v-28.5Z"/>
      <path class="st30" d="M1513.8,362.9l2.9-4.4c3.1,2.3,6.4,3.5,9.3,3.5s4.4-1.2,4.4-3.1h0c0-2.3-3-3.1-6.4-4.1-4.2-1.2-8.9-2.9-8.9-8.3h0c0-5.6,4.5-8.8,10.1-8.8s7.4,1.2,10.5,3.2l-2.6,4.6c-2.8-1.7-5.7-2.7-8-2.7s-4,1.2-4,2.8h0c0,2.2,3.1,3.1,6.4,4.1,4.2,1.3,8.8,3.2,8.8,8.3h0c0,6.1-4.6,9.1-10.6,9.1s-8.5-1.4-12.1-4.3h0Z"/>
    </g>
  </g>
</svg>